<?xml version="1.0" encoding="UTF-8"?>
<svg width="58px" height="56px" viewBox="0 0 58 56" version="1.1" xmlns="http://www.w3.org/2000/svg" xmlns:xlink="http://www.w3.org/1999/xlink">
    <!-- Generator: Sketch 51.3 (57544) - http://www.bohemiancoding.com/sketch -->
    <title>047 - Programmer</title>
    <desc>Created with Sketch.</desc>
    <defs></defs>
    <g id="Page-1" stroke="none" stroke-width="1" fill="none" fill-rule="evenodd">
        <g id="047---Programmer" fill="#000000" fill-rule="nonzero">
            <path d="M15.15,9.14 C14.3429648,9.86276277 13.9179563,10.9197405 14,12 C14,18.22 11.61,20.54 8.49,21.43 C9.62129129,21.8093155 10.8068123,22.0018361 12,22 C12.401081,22.0021886 12.8018937,21.9788079 13.2,21.93 C13.3610793,21.9198653 13.5213823,21.8998274 13.68,21.87 C14.0405294,21.8168996 14.3977666,21.7434489 14.75,21.65 C14.88,21.62 15.02,21.58 15.15,21.54 C15.3982262,21.4717039 15.6420193,21.3882131 15.88,21.29 C16.302342,21.1356181 16.7133483,20.9518348 17.11,20.74 C17.5597527,20.5065866 17.9910086,20.2391411 18.4,19.94 C18.66,19.75 18.91,19.56 19.15,19.35 C19.3952613,19.1465443 19.6289591,18.9295392 19.85,18.7 C19.96,18.59 20.07,18.48 20.17,18.36 C20.39,18.12 20.59,17.87 20.78,17.62 C20.85,17.52 20.93,17.42 21.01,17.31 C21.11,17.16 21.22,17 21.32,16.84 C21.4,16.71 21.48,16.57 21.56,16.43 C21.6446655,16.2945312 21.7214593,16.154299 21.79,16.01 C21.86,15.87 21.93,15.73 22,15.58 C22.07,15.43 22.13,15.29 22.19,15.14 C22.25,14.99 22.31,14.84 22.36,14.69 C22.46,14.41 22.55,14.13 22.62,13.85 C22.67,13.67 22.72,13.48 22.76,13.28 L22.85,12.8 C22.86,12.76 22.86,12.72 22.87,12.68 C22.91,12.43 22.94,12.17 22.96,11.92 L22.96,11.9 C22.99,11.6 23,11.3 23,11 C23,10.86 23,10.71 22.99,10.57 C22.9899705,10.4195014 22.9799484,10.2691707 22.96,10.12 C22.95,9.97 22.93,9.81 22.91,9.65 C22.89,9.44 22.86,9.23 22.82,9.02 C22.78,8.77 22.72,8.53 22.66,8.28 C19.16,7.71 16.51,8.01 15.15,9.14 Z" id="Shape"></path>
            <path d="M56,51.5 C55.9961455,49.016317 53.983683,47.0038545 51.5,47 L48,47 L48,56 L51.5,56 C53.983683,55.9961455 55.9961455,53.983683 56,51.5 Z" id="Shape"></path>
            <path d="M21.42,5.31 C21.2310402,4.98074784 21.017078,4.66649083 20.78,4.37 C20.69,4.25 20.59,4.13 20.5,4.01 C20.5,4 20.49,3.99 20.48,3.98 L20.09,3.53 C19.3777219,2.77489451 18.5671227,2.11901554 17.68,1.58 C17.53,1.49 17.38,1.4 17.23,1.32 C17.0819974,1.23017323 16.9283438,1.15000614 16.77,1.08 C16.6180563,0.999875257 16.4610576,0.929726929 16.3,0.87 C16.2889743,0.859472503 16.2750374,0.852504078 16.26,0.85 C15.9379218,0.709243094 15.6072614,0.589002957 15.27,0.49 C15.1,0.44 14.93,0.39 14.75,0.35 C14.62,0.31 14.48,0.28 14.34,0.25 C14.151826,0.206985953 13.9615783,0.173609158 13.77,0.15 C13.7428688,0.133986158 13.71136,0.126984187 13.68,0.13 C13.55,0.11 13.42,0.09 13.29,0.08 C13.124407,0.0539375769 12.9574748,0.0372443512 12.79,0.03 C12.53,0.01 12.26,0 12,0 C5.92646787,0.00386129039 1.00386129,4.92646787 1,11 C1,11.22 1.01,11.44 1.02,11.66 C1.05078557,12.1261331 1.10754034,12.5901868 1.19,13.05 C1.22,13.22 1.26,13.39 1.3,13.56 C1.35,13.78 1.41,14 1.48,14.21 C1.52095407,14.3628653 1.57104409,14.5131353 1.63,14.66 C1.73,14.95 1.84,15.23 1.96,15.5 C2.03,15.65 2.1,15.8 2.18,15.95 C2.87089099,17.3227212 3.841751,18.5354446 5.03,19.51 C5.2,19.65 5.37,19.78 5.55,19.91 C9.64,19.56 12,18.08 12,12 C11.9124384,10.3236103 12.6023011,8.70040402 13.87,7.6 C15.88,5.94 19.08,5.82 21.88,6.15 C21.8178171,6.01593996 21.7476926,5.88570866 21.67,5.76 C21.5943634,5.60585143 21.5109219,5.45565672 21.42,5.31 Z" id="Shape"></path>
            <path d="M55,8 L24.65,8 C24.8042796,8.65776734 24.9079165,9.32639227 24.96,10 C24.99,10.34 25,10.67 25,11 C25,11.33 24.99,11.67 24.96,12 L56,12 L56,14 L24.65,14 L24.59,14.24 C24.5406001,14.4495978 24.4805218,14.6565343 24.41,14.86 C24.37,14.99 24.33,15.12 24.28,15.25 C24.24,15.36 24.2,15.48 24.16,15.59 C24.12,15.7 24.08,15.81 24.03,15.92 C23.9885161,16.0401353 23.938385,16.157108 23.88,16.27 C23.83,16.39 23.78,16.51 23.72,16.63 C23.53,17.01 23.33,17.38 23.11,17.74 C22.89,18.1 22.67,18.42 22.43,18.75 C22.42,18.76 22.41,18.77 22.41,18.78 C22.25,18.99 22.09,19.19 21.93,19.38 C21.75,19.59 21.57,19.79 21.38,19.98 C21.19,20.17 21,20.36 20.81,20.55 C20.7842269,20.5707589 20.7607589,20.5942269 20.74,20.62 C20.56,20.77 20.38,20.93 20.2,21.08 C19.99,21.25 19.77,21.41 19.55,21.57 C19.3377705,21.7359055 19.1138568,21.8862953 18.88,22.02 L18.87,22.03 C19.1,22.04 19.34,22.06 19.57,22.09 C20.8363904,22.2591616 22.0642733,22.6447777 23.2,23.23 C23.34,23.3 23.48,23.37 23.61,23.45 C23.79,23.55 23.96,23.65 24.12,23.76 C24.26,23.85 24.4,23.94 24.54,24.04 C24.56,24.06 24.58,24.07 24.59,24.08 C24.7532214,24.1911914 24.9101305,24.3113771 25.06,24.44 C25.0952448,24.4641854 25.1286678,24.4909239 25.16,24.52 C25.31,24.64 25.46,24.77 25.6,24.9 L25.64,24.94 C25.8,25.08 25.95,25.23 26.1,25.39 C26.23,25.53 26.36,25.67 26.48,25.81 C26.598296,25.9362665 26.7085146,26.0698647 26.81,26.21 C27.1540937,26.6460815 27.4649671,27.1073775 27.74,27.59 L33.62,38 L33.63,38 L34.75,40 L38,40 L38,44.68 C37.8812148,44.6230682 37.7674736,44.5561616 37.66,44.48 C37.6378335,44.4702437 37.6175314,44.456709 37.6,44.44 C37.510057,44.3820435 37.4262865,44.3150271 37.35,44.24 C37.2110024,44.1226127 37.0837379,43.9919992 36.97,43.85 C36.88,43.73 36.8,43.61 36.72,43.48 L34.75,40 L33.04,40 C32.6821872,39.9981608 32.3517215,39.8082381 32.17,39.5 L32.17,39.48 L26,28.57 C24.4023249,25.7488547 21.412131,24.0036202 18.17,24 L9,24 C4.03263394,24.007709 0.00770904005,28.0326339 0,33 L0,56.0000201 L23,56 L23,47.37 C22.9962857,46.7467849 23.4098654,46.1980752 24.01,46.03 C24.1395156,45.9898156 24.2743943,45.9695837 24.41,45.97 C24.8850192,45.9741371 25.3255338,46.2188674 25.58,46.62 L28.9,51.83 C30.5454113,54.4318309 33.4115491,56.0065074 36.49,56 L46,56 L46,47 L39.9,47 C39.9538751,46.6623281 39.9872694,46.3217057 40,45.98 L40,40 L55,40 C56.6548028,39.9950578 57.9950578,38.6548028 58,37 L58,11 C57.9950578,9.3451972 56.6548028,8.0049422 55,8 Z M45,28 L53,28 C53.5522847,28 54,28.4477153 54,29 C54,29.5522847 53.5522847,30 53,30 L45,30 C44.4477153,30 44,29.5522847 44,29 C44,28.4477153 44.4477153,28 45,28 Z M46,34 L35,34 C34.4477153,34 34,33.5522847 34,33 C34,32.4477153 34.4477153,32 35,32 L46,32 C46.5522847,32 47,32.4477153 47,33 C47,33.5522847 46.5522847,34 46,34 Z M38.45,19.83 C38.0478752,19.5060877 37.9584871,18.9292756 38.243712,18.4988453 C38.5289369,18.068415 39.0949739,17.9259207 39.55,18.17 L42.55,20.17 C42.8309025,20.3526305 43.0003705,20.6649476 43.0003705,21 C43.0003705,21.3350524 42.8309025,21.6473695 42.55,21.83 L39.55,23.83 C39.3889872,23.9428533 39.1966104,24.0023152 39,24 C38.5614435,23.9966147 38.1762695,23.707868 38.0500369,23.2878578 C37.9238043,22.8678475 38.0859742,22.4145986 38.45,22.17 L40.2,21 L38.45,19.83 Z M33.03,24.76 L35.03,16.76 C35.1791291,16.2438977 35.7093873,15.9378392 36.2308781,16.0668678 C36.7523689,16.1958965 37.0787346,16.7139032 36.97,17.24 L34.97,25.24 C34.8958173,25.5989226 34.6312297,25.888506 34.2804429,25.9947 C33.9296562,26.1008941 33.5488818,26.0066818 33.2880846,25.749168 C33.0272874,25.4916542 32.9282586,25.112104 33.03,24.76 Z M27.45,21.83 C27.1690975,21.6473695 26.9996295,21.3350524 26.9996295,21 C26.9996295,20.6649476 27.1690975,20.3526305 27.45,20.17 L30.45,18.17 C30.7455284,17.9319513 31.1503343,17.8816891 31.4951054,18.0402359 C31.8398766,18.1987827 32.0652004,18.5388168 32.0768341,18.9181174 C32.0884678,19.2974179 31.8844065,19.6506219 31.55,19.83 L29.8,21 L31.55,22.17 C31.9140258,22.4145986 32.0761957,22.8678475 31.9499631,23.2878578 C31.8237305,23.707868 31.4385565,23.9966147 31,24 C30.8033896,24.0023152 30.6110128,23.9428533 30.45,23.83 L27.45,21.83 Z M32,30 C31.4477153,30 31,29.5522847 31,29 C31,28.4477153 31.4477153,28 32,28 L41,28 C41.5522847,28 42,28.4477153 42,29 C42,29.5522847 41.5522847,30 41,30 L32,30 Z" id="Shape"></path>
        </g>
    </g>
</svg>