<?xml version="1.0" encoding="UTF-8" standalone="no" ?>
<!DOCTYPE svg PUBLIC "-//W3C//DTD SVG 1.1//EN" "http://www.w3.org/Graphics/SVG/1.1/DTD/svg11.dtd">
<svg xmlns="http://www.w3.org/2000/svg" xmlns:xlink="http://www.w3.org/1999/xlink" version="1.1" width="1080" height="1080" viewBox="0 0 1080 1080" xml:space="preserve">
<desc>Created with Fabric.js 5.2.4</desc>
<defs>
</defs>
<g transform="matrix(1 0 0 1 540 540)" id="37bcf222-04e2-40ed-bf44-aa63f308131f"  >
</g>
<g transform="matrix(1 0 0 1 540 540)" id="60f2b975-7c47-4a10-afca-f42a5caa1211"  >
<rect style="stroke: none; stroke-width: 1; stroke-dasharray: none; stroke-linecap: butt; stroke-dashoffset: 0; stroke-linejoin: miter; stroke-miterlimit: 4; fill: rgb(255,255,255); fill-rule: nonzero; opacity: 1; visibility: hidden;" vector-effect="non-scaling-stroke"  x="-540" y="-540" rx="0" ry="0" width="1080" height="1080" />
</g>
<g transform="matrix(14.38 0 0 14.38 369.09 372.07)"  >
<path style="stroke: none; stroke-width: 1; stroke-dasharray: none; stroke-linecap: butt; stroke-dashoffset: 0; stroke-linejoin: miter; stroke-miterlimit: 4; fill: rgb(165,86,11); fill-opacity: 0.98; fill-rule: nonzero; opacity: 1;" vector-effect="non-scaling-stroke"  transform=" translate(-15.75, -15)" d="M 15.15 9.14 C 14.3429648 9.86276277 13.9179563 10.9197405 14 12 C 14 18.22 11.61 20.54 8.49 21.43 C 9.62129129 21.8093155 10.8068123 22.0018361 12 22 C 12.401081 22.0021886 12.8018937 21.9788079 13.2 21.93 C 13.3610793 21.9198653 13.5213823 21.8998274 13.68 21.87 C 14.0405294 21.8168996 14.3977666 21.7434489 14.75 21.65 C 14.88 21.62 15.02 21.58 15.15 21.54 C 15.3982262 21.4717039 15.6420193 21.3882131 15.88 21.29 C 16.302342 21.1356181 16.7133483 20.9518348 17.11 20.74 C 17.5597527 20.5065866 17.9910086 20.2391411 18.4 19.94 C 18.66 19.75 18.91 19.56 19.15 19.35 C 19.3952613 19.1465443 19.6289591 18.9295392 19.85 18.7 C 19.96 18.59 20.07 18.48 20.17 18.36 C 20.39 18.12 20.59 17.87 20.78 17.62 C 20.85 17.52 20.93 17.42 21.01 17.31 C 21.11 17.16 21.22 17 21.32 16.84 C 21.4 16.71 21.48 16.57 21.56 16.43 C 21.6446655 16.2945312 21.7214593 16.154299 21.79 16.01 C 21.86 15.87 21.93 15.73 22 15.58 C 22.07 15.43 22.13 15.29 22.19 15.14 C 22.25 14.99 22.31 14.84 22.36 14.69 C 22.46 14.41 22.55 14.13 22.62 13.85 C 22.67 13.67 22.72 13.48 22.76 13.28 L 22.85 12.8 C 22.86 12.76 22.86 12.72 22.87 12.68 C 22.91 12.43 22.94 12.17 22.96 11.92 L 22.96 11.9 C 22.99 11.6 23 11.3 23 11 C 23 10.86 23 10.71 22.99 10.57 C 22.9899705 10.4195014 22.9799484 10.2691707 22.96 10.12 C 22.95 9.97 22.93 9.81 22.91 9.65 C 22.89 9.44 22.86 9.23 22.82 9.02 C 22.78 8.77 22.72 8.53 22.66 8.28 C 19.16 7.71 16.51 8.01 15.15 9.14 Z" stroke-linecap="round" />
</g>
<g transform="matrix(14.38 0 0 14.38 890.33 896.86)"  >
<path style="stroke: none; stroke-width: 1; stroke-dasharray: none; stroke-linecap: butt; stroke-dashoffset: 0; stroke-linejoin: miter; stroke-miterlimit: 4; fill: rgb(165,86,11); fill-opacity: 0.98; fill-rule: nonzero; opacity: 1;" vector-effect="non-scaling-stroke"  transform=" translate(-52, -51.5)" d="M 56 51.5 C 55.9961455 49.016317 53.983683 47.0038545 51.5 47 L 48 47 L 48 56 L 51.5 56 C 53.983683 55.9961455 55.9961455 53.983683 56 51.5 Z" stroke-linecap="round" />
</g>
<g transform="matrix(14.38 0 0 14.38 307.2 297.8)"  >
<path style="stroke: none; stroke-width: 1; stroke-dasharray: none; stroke-linecap: butt; stroke-dashoffset: 0; stroke-linejoin: miter; stroke-miterlimit: 4; fill: rgb(1,41,48); fill-opacity: 0.9; fill-rule: nonzero; opacity: 1;" vector-effect="non-scaling-stroke"  transform=" translate(-11.44, -9.96)" d="M 21.42 5.31 C 21.2310402 4.98074784 21.017078 4.66649083 20.78 4.37 C 20.69 4.25 20.59 4.13 20.5 4.01 C 20.5 4 20.49 3.99 20.48 3.98 L 20.09 3.53 C 19.3777219 2.77489451 18.5671227 2.11901554 17.68 1.58 C 17.53 1.49 17.38 1.4 17.23 1.32 C 17.0819974 1.23017323 16.9283438 1.15000614 16.77 1.08 C 16.6180563 0.999875257 16.4610576 0.929726929 16.3 0.87 C 16.2889743 0.859472503 16.2750374 0.852504078 16.26 0.85 C 15.9379218 0.709243094 15.6072614 0.589002957 15.27 0.49 C 15.1 0.44 14.93 0.39 14.75 0.35 C 14.62 0.31 14.48 0.28 14.34 0.25 C 14.151826 0.206985953 13.9615783 0.173609158 13.77 0.15 C 13.7428688 0.133986158 13.71136 0.126984187 13.68 0.13 C 13.55 0.11 13.42 0.09 13.29 0.08 C 13.124407 0.0539375769 12.9574748 0.0372443512 12.79 0.03 C 12.53 0.01 12.26 0 12 0 C 5.92646787 0.00386129039 1.00386129 4.92646787 1 11 C 1 11.22 1.01 11.44 1.02 11.66 C 1.05078557 12.1261331 1.10754034 12.5901868 1.19 13.05 C 1.22 13.22 1.26 13.39 1.3 13.56 C 1.35 13.78 1.41 14 1.48 14.21 C 1.52095407 14.3628653 1.57104409 14.5131353 1.63 14.66 C 1.73 14.95 1.84 15.23 1.96 15.5 C 2.03 15.65 2.1 15.8 2.18 15.95 C 2.87089099 17.3227212 3.841751 18.5354446 5.03 19.51 C 5.2 19.65 5.37 19.78 5.55 19.91 C 9.64 19.56 12 18.08 12 12 C 11.9124384 10.3236103 12.6023011 8.70040402 13.87 7.6 C 15.88 5.94 19.08 5.82 21.88 6.15 C 21.8178171 6.01593996 21.7476926 5.88570866 21.67 5.76 C 21.5943634 5.60585143 21.5109219 5.45565672 21.42 5.31 Z" stroke-linecap="round" />
</g>
<g transform="matrix(14.38 0 0 14.38 568.01 619.57)"  >
<path style="stroke: rgb(0,0,0); stroke-width: 0; stroke-dasharray: none; stroke-linecap: butt; stroke-dashoffset: 0; stroke-linejoin: miter; stroke-miterlimit: 4; fill: rgb(1,41,48); fill-opacity: 0.9; fill-rule: nonzero; opacity: 1;" vector-effect="non-scaling-stroke"  transform=" translate(-29, -32)" d="M 55 8 L 24.65 8 C 24.8042796 8.65776734 24.9079165 9.32639227 24.96 10 C 24.99 10.34 25 10.67 25 11 C 25 11.33 24.99 11.67 24.96 12 L 56 12 L 56 14 L 24.65 14 L 24.59 14.24 C 24.5406001 14.4495978 24.4805218 14.6565343 24.41 14.86 C 24.37 14.99 24.33 15.12 24.28 15.25 C 24.24 15.36 24.2 15.48 24.16 15.59 C 24.12 15.7 24.08 15.81 24.03 15.92 C 23.9885161 16.0401353 23.938385 16.157108 23.88 16.27 C 23.83 16.39 23.78 16.51 23.72 16.63 C 23.53 17.01 23.33 17.38 23.11 17.74 C 22.89 18.1 22.67 18.42 22.43 18.75 C 22.42 18.76 22.41 18.77 22.41 18.78 C 22.25 18.99 22.09 19.19 21.93 19.38 C 21.75 19.59 21.57 19.79 21.38 19.98 C 21.19 20.17 21 20.36 20.81 20.55 C 20.7842269 20.5707589 20.7607589 20.5942269 20.74 20.62 C 20.56 20.77 20.38 20.93 20.2 21.08 C 19.99 21.25 19.77 21.41 19.55 21.57 C 19.3377705 21.7359055 19.1138568 21.8862953 18.88 22.02 L 18.87 22.03 C 19.1 22.04 19.34 22.06 19.57 22.09 C 20.8363904 22.2591616 22.0642733 22.6447777 23.2 23.23 C 23.34 23.3 23.48 23.37 23.61 23.45 C 23.79 23.55 23.96 23.65 24.12 23.76 C 24.26 23.85 24.4 23.94 24.54 24.04 C 24.56 24.06 24.58 24.07 24.59 24.08 C 24.7532214 24.1911914 24.9101305 24.3113771 25.06 24.44 C 25.0952448 24.4641854 25.1286678 24.4909239 25.16 24.52 C 25.31 24.64 25.46 24.77 25.6 24.9 L 25.64 24.94 C 25.8 25.08 25.95 25.23 26.1 25.39 C 26.23 25.53 26.36 25.67 26.48 25.81 C 26.598296 25.9362665 26.7085146 26.0698647 26.81 26.21 C 27.1540937 26.6460815 27.4649671 27.1073775 27.74 27.59 L 33.62 38 L 33.63 38 L 34.75 40 L 38 40 L 38 44.68 C 37.8812148 44.6230682 37.7674736 44.5561616 37.66 44.48 C 37.6378335 44.4702437 37.6175314 44.456709 37.6 44.44 C 37.510057 44.3820435 37.4262865 44.3150271 37.35 44.24 C 37.2110024 44.1226127 37.0837379 43.9919992 36.97 43.85 C 36.88 43.73 36.8 43.61 36.72 43.48 L 34.75 40 L 33.04 40 C 32.6821872 39.9981608 32.3517215 39.8082381 32.17 39.5 L 32.17 39.48 L 26 28.57 C 24.4023249 25.7488547 21.412131 24.0036202 18.17 24 L 9 24 C 4.03263394 24.007709 0.00770904005 28.0326339 0 33 L 0 56.0000201 L 23 56 L 23 47.37 C 22.9962857 46.7467849 23.4098654 46.1980752 24.01 46.03 C 24.1395156 45.9898156 24.2743943 45.9695837 24.41 45.97 C 24.8850192 45.9741371 25.3255338 46.2188674 25.58 46.62 L 28.9 51.83 C 30.5454113 54.4318309 33.4115491 56.0065074 36.49 56 L 46 56 L 46 47 L 39.9 47 C 39.9538751 46.6623281 39.9872694 46.3217057 40 45.98 L 40 40 L 55 40 C 56.6548028 39.9950578 57.9950578 38.6548028 58 37 L 58 11 C 57.9950578 9.3451972 56.6548028 8.0049422 55 8 Z M 45 28 L 53 28 C 53.5522847 28 54 28.4477153 54 29 C 54 29.5522847 53.5522847 30 53 30 L 45 30 C 44.4477153 30 44 29.5522847 44 29 C 44 28.4477153 44.4477153 28 45 28 Z M 46 34 L 35 34 C 34.4477153 34 34 33.5522847 34 33 C 34 32.4477153 34.4477153 32 35 32 L 46 32 C 46.5522847 32 47 32.4477153 47 33 C 47 33.5522847 46.5522847 34 46 34 Z M 38.45 19.83 C 38.0478752 19.5060877 37.9584871 18.9292756 38.243712 18.4988453 C 38.5289369 18.068415 39.0949739 17.9259207 39.55 18.17 L 42.55 20.17 C 42.8309025 20.3526305 43.0003705 20.6649476 43.0003705 21 C 43.0003705 21.3350524 42.8309025 21.6473695 42.55 21.83 L 39.55 23.83 C 39.3889872 23.9428533 39.1966104 24.0023152 39 24 C 38.5614435 23.9966147 38.1762695 23.707868 38.0500369 23.2878578 C 37.9238043 22.8678475 38.0859742 22.4145986 38.45 22.17 L 40.2 21 L 38.45 19.83 Z M 33.03 24.76 L 35.03 16.76 C 35.1791291 16.2438977 35.7093873 15.9378392 36.2308781 16.0668678 C 36.7523689 16.1958965 37.0787346 16.7139032 36.97 17.24 L 34.97 25.24 C 34.8958173 25.5989226 34.6312297 25.888506 34.2804429 25.9947 C 33.9296562 26.1008941 33.5488818 26.0066818 33.2880846 25.749168 C 33.0272874 25.4916542 32.9282586 25.112104 33.03 24.76 Z M 27.45 21.83 C 27.1690975 21.6473695 26.9996295 21.3350524 26.9996295 21 C 26.9996295 20.6649476 27.1690975 20.3526305 27.45 20.17 L 30.45 18.17 C 30.7455284 17.9319513 31.1503343 17.8816891 31.4951054 18.0402359 C 31.8398766 18.1987827 32.0652004 18.5388168 32.0768341 18.9181174 C 32.0884678 19.2974179 31.8844065 19.6506219 31.55 19.83 L 29.8 21 L 31.55 22.17 C 31.9140258 22.4145986 32.0761957 22.8678475 31.9499631 23.2878578 C 31.8237305 23.707868 31.4385565 23.9966147 31 24 C 30.8033896 24.0023152 30.6110128 23.9428533 30.45 23.83 L 27.45 21.83 Z M 32 30 C 31.4477153 30 31 29.5522847 31 29 C 31 28.4477153 31.4477153 28 32 28 L 41 28 C 41.5522847 28 42 28.4477153 42 29 C 42 29.5522847 41.5522847 30 41 30 L 32 30 Z" stroke-linecap="round" />
</g>
</svg>